<?xml version="1.0" standalone="no"?>
<!DOCTYPE svg PUBLIC "-//W3C//DTD SVG 20010904//EN"
 "http://www.w3.org/TR/2001/REC-SVG-20010904/DTD/svg10.dtd">
<svg version="1.0" xmlns="http://www.w3.org/2000/svg"
 width="300.000000pt" height="300.000000pt" viewBox="0 0 300.000000 300.000000"
 preserveAspectRatio="xMidYMid meet">
<metadata>
Created by potrace 1.14, written by Peter Selinger 2001-2017
</metadata>
<g transform="translate(0.000000,300.000000) scale(0.100000,-0.100000)"
fill="#000000" stroke="none">
<path d="M0 2523 c1 -338 4 -474 11 -463 8 11 9 9 3 -10 -5 -14 -10 -481 -11
-1037 l-3 -1013 1500 0 1500 0 0 1500 0 1500 -1500 0 -1500 0 0 -477z m1805
258 c184 -40 368 -124 517 -236 80 -61 245 -224 281 -279 10 -15 22 -24 27
-21 6 4 7 -1 3 -11 -4 -12 -3 -15 5 -10 8 5 10 1 5 -10 -4 -11 -3 -15 5 -10 6
3 14 -3 18 -16 4 -13 27 -63 51 -113 55 -112 99 -253 116 -370 9 -70 13 -83
19 -60 3 17 4 -1 2 -39 -3 -50 -1 -72 8 -78 10 -6 10 -8 0 -8 -10 0 -13 -19
-12 -72 2 -88 -20 -221 -55 -343 -27 -91 -122 -304 -149 -330 -8 -8 -24 -31
-37 -52 -35 -57 -204 -227 -284 -287 -162 -122 -331 -198 -535 -242 -117 -25
-401 -26 -515 -1 -355 76 -660 279 -849 567 -106 161 -183 362 -206 543 -11
83 -19 359 -10 351 2 -3 10 29 17 70 66 391 332 750 694 936 116 60 272 112
384 129 44 7 87 14 95 16 48 10 324 -6 405 -24z m778 -428 c16 -29 16 -31 1
-29 -15 2 -43 40 -44 59 0 18 26 -1 43 -30z m-2493 12 c0 -8 -4 -15 -10 -15
-5 0 -7 7 -4 15 4 8 8 15 10 15 2 0 4 -7 4 -15z m2717 -87 c-3 -8 -6 -5 -6 6
-1 11 2 17 5 13 3 -3 4 -12 1 -19z m43 -103 c0 -5 -5 -3 -10 5 -5 8 -10 20
-10 25 0 6 5 3 10 -5 5 -8 10 -19 10 -25z m-2794 -11 c-4 -9 -9 -15 -11 -12
-3 3 -3 13 1 22 4 9 9 15 11 12 3 -3 3 -13 -1 -22z m160 -76 c-19 -27 -21 -19
-4 18 7 14 14 21 16 15 2 -6 -4 -21 -12 -33z m2663 2 c0 -10 -3 -8 -9 5 -12
27 -12 43 0 25 5 -8 9 -22 9 -30z m-29 9 c0 -5 -4 -9 -10 -9 -5 0 -10 7 -10
16 0 8 5 12 10 9 6 -3 10 -10 10 -16z m47 -81 c-3 -8 -6 -5 -6 6 -1 11 2 17 5
13 3 -3 4 -12 1 -19z m-2740 -30 c-3 -8 -6 -5 -6 6 -1 11 2 17 5 13 3 -3 4
-12 1 -19z m2727 6 c3 -8 2 -12 -4 -9 -6 3 -10 10 -10 16 0 14 7 11 14 -7z
m23 -16 c-3 -8 -6 -5 -6 6 -1 11 2 17 5 13 3 -3 4 -12 1 -19z m10 -40 c-3 -8
-6 -5 -6 6 -1 11 2 17 5 13 3 -3 4 -12 1 -19z m-37 -36 c14 -52 11 -75 -4 -27
-7 22 -17 39 -22 38 -6 -1 -10 7 -11 17 -3 33 26 11 37 -28z m-2678 9 c-9 -9
-19 -12 -21 -7 -2 6 1 12 8 14 6 2 9 8 6 13 -4 5 1 6 9 3 12 -5 12 -8 -2 -23z
m-65 -13 c-3 -7 -5 -2 -5 12 0 14 2 19 5 13 2 -7 2 -19 0 -25z m2790 -10 c-3
-7 -5 -2 -5 12 0 14 2 19 5 13 2 -7 2 -19 0 -25z m-2710 0 c-3 -8 -6 -5 -6 6
-1 11 2 17 5 13 3 -3 4 -12 1 -19z m-90 -40 c-3 -7 -5 -2 -5 12 0 14 2 19 5
13 2 -7 2 -19 0 -25z m47 -17 c-4 -23 -9 -40 -11 -37 -3 3 -2 23 2 46 4 23 9
39 11 37 3 -2 2 -23 -2 -46z m2779 -70 c-7 -9 -11 6 -16 59 l-6 55 13 -55 c7
-30 11 -57 9 -59z m-2833 39 c0 -16 -4 -30 -8 -30 -5 0 -7 14 -4 30 2 17 6 30
8 30 2 0 4 -13 4 -30z m2777 -17 c-3 -10 -5 -2 -5 17 0 19 2 27 5 18 2 -10 2
-26 0 -35z m28 -4 c17 -80 32 -320 21 -308 -3 3 -7 42 -10 88 -3 46 -8 86 -11
90 -4 3 -5 -24 -3 -62 1 -37 0 -67 -4 -67 -5 0 -8 37 -8 83 0 60 3 78 11 67
10 -14 8 24 -7 115 -6 34 4 29 11 -6z m-58 -21 c-3 -8 -6 -5 -6 6 -1 11 2 17
5 13 3 -3 4 -12 1 -19z m-2710 -35 c-3 -10 -5 -2 -5 17 0 19 2 27 5 18 2 -10
2 -26 0 -35z m-50 -15 c-2 -13 -4 -5 -4 17 -1 22 1 32 4 23 2 -10 2 -28 0 -40z
m110 30 c-3 -8 -6 -5 -6 6 -1 11 2 17 5 13 3 -3 4 -12 1 -19z m2690 -30 c-2
-13 -4 -5 -4 17 -1 22 1 32 4 23 2 -10 2 -28 0 -40z m63 -217 c0 -96 -2 -176
-5 -179 -3 -3 -5 69 -6 159 0 90 -2 191 -4 224 -3 58 -3 58 5 15 5 -25 9 -123
10 -219z m-93 187 c-3 -7 -5 -2 -5 12 0 14 2 19 5 13 2 -7 2 -19 0 -25z
m-2730 -65 c-2 -16 -4 -3 -4 27 0 30 2 43 4 28 2 -16 2 -40 0 -55z m-50 -25
c-2 -18 -4 -4 -4 32 0 36 2 50 4 33 2 -18 2 -48 0 -65z m2890 40 c-3 -7 -5 -2
-5 12 0 14 2 19 5 13 2 -7 2 -19 0 -25z m-100 -171 c-2 -23 -3 -1 -3 48 0 50
1 68 3 42 2 -26 2 -67 0 -90z m-2710 81 c-3 -8 -6 -5 -6 6 -1 11 2 17 5 13 3
-3 4 -12 1 -19z m-60 -10 c-3 -8 -6 -5 -6 6 -1 11 2 17 5 13 3 -3 4 -12 1 -19z
m20 -45 c-3 -10 -5 -4 -5 12 0 17 2 24 5 18 2 -7 2 -21 0 -30z m2813 -53 c0
-5 -5 -10 -11 -10 -5 0 -7 5 -4 10 3 6 8 10 11 10 2 0 4 -4 4 -10z m-33 -97
c-2 -21 -4 -6 -4 32 0 39 2 55 4 38 2 -18 2 -50 0 -70z m-2820 -5 c-2 -18 -4
-6 -4 27 0 33 2 48 4 33 2 -15 2 -42 0 -60z m50 -15 c-2 -16 -4 -5 -4 22 0 28
2 40 4 28 2 -13 2 -35 0 -50z m2803 57 c0 -5 -5 -10 -11 -10 -5 0 -7 5 -4 10
3 6 8 10 11 10 2 0 4 -4 4 -10z m-13 -52 c-3 -7 -5 -2 -5 12 0 14 2 19 5 13 2
-7 2 -19 0 -25z m20 -75 c-3 -10 -5 -2 -5 17 0 19 2 27 5 18 2 -10 2 -26 0
-35z m-50 0 c-3 -10 -5 -4 -5 12 0 17 2 24 5 18 2 -7 2 -21 0 -30z m-2800 -10
c-3 -10 -5 -4 -5 12 0 17 2 24 5 18 2 -7 2 -21 0 -30z m50 -20 c-3 -10 -5 -2
-5 17 0 19 2 27 5 18 2 -10 2 -26 0 -35z m2790 -40 c-3 -10 -5 -4 -5 12 0 17
2 24 5 18 2 -7 2 -21 0 -30z m-2830 -5 c-3 -7 -5 -2 -5 12 0 14 2 19 5 13 2
-7 2 -19 0 -25z m2780 0 c-3 -7 -5 -2 -5 12 0 14 2 19 5 13 2 -7 2 -19 0 -25z
m-2730 -10 c-3 -7 -5 -2 -5 12 0 14 2 19 5 13 2 -7 2 -19 0 -25z m2720 -40
c-3 -8 -6 -5 -6 6 -1 11 2 17 5 13 3 -3 4 -12 1 -19z m50 -10 c-3 -7 -5 -2 -5
12 0 14 2 19 5 13 2 -7 2 -19 0 -25z m-2810 0 c-3 -8 -6 -5 -6 6 -1 11 2 17 5
13 3 -3 4 -12 1 -19z m2800 -40 c-3 -8 -6 -5 -6 6 -1 11 2 17 5 13 3 -3 4 -12
1 -19z m-10 -40 c-3 -8 -6 -5 -6 6 -1 11 2 17 5 13 3 -3 4 -12 1 -19z m-10
-40 c-3 -8 -6 -5 -6 6 -1 11 2 17 5 13 3 -3 4 -12 1 -19z m-10 -40 c-3 -8 -6
-5 -6 6 -1 11 2 17 5 13 3 -3 4 -12 1 -19z m-2874 -28 c3 -11 1 -18 -4 -14 -5
3 -9 12 -9 20 0 20 7 17 13 -6z m2825 -46 c-7 -15 -14 -21 -16 -15 -2 7 2 18
8 26 18 22 21 18 8 -11z m-2618 -17 c0 -5 -4 -5 -10 -2 -5 3 -10 14 -10 23 0
15 2 15 10 2 5 -8 10 -19 10 -23z m-170 -62 c0 -5 -5 -3 -10 5 -5 8 -10 20
-10 25 0 6 5 3 10 -5 5 -8 10 -19 10 -25z m2507 -192 c-21 -21 -27 -15 -16 16
7 19 12 22 21 13 9 -9 8 -16 -5 -29z"/>
<path d="M1395 2770 c-452 -46 -822 -288 -1010 -660 -81 -161 -121 -312 -134
-508 -39 -581 217 -1051 694 -1272 506 -235 1133 -137 1509 237 166 165 273
363 328 608 28 128 36 406 15 541 -67 417 -295 739 -652 917 -221 110 -505
162 -750 137z m-198 -255 c0 -8 -4 -12 -9 -9 -4 3 -8 2 -8 -3 0 -4 -7 -17 -15
-27 -13 -17 -17 -17 -32 -5 -15 12 -16 12 -10 -4 5 -14 2 -20 -13 -24 -11 -3
-17 -10 -13 -16 4 -6 -2 -8 -16 -4 -18 4 -21 2 -16 -14 5 -14 2 -17 -9 -13
-24 9 -49 -21 -36 -45 5 -11 10 -26 9 -33 0 -10 -2 -10 -6 0 -8 20 -41 34 -49
20 -4 -6 -3 -8 4 -4 13 8 26 -10 17 -25 -5 -7 -14 -4 -26 7 -19 17 -20 17 -13
-2 4 -10 12 -26 18 -34 6 -8 0 -6 -13 5 l-24 20 12 -22 c12 -23 -2 -43 -15
-22 -5 8 -3 9 6 4 9 -6 11 -4 5 4 -5 9 -10 10 -18 2 -7 -7 -6 -15 2 -25 8 -10
9 -16 1 -21 -6 -3 -7 -11 -4 -17 4 -7 2 -8 -5 -4 -6 4 -9 11 -7 15 3 3 -3 7
-13 7 -12 0 -17 -6 -14 -17 5 -18 -19 -21 -34 -4 -4 4 -2 5 6 0 10 -5 12 -4 7
4 -9 14 -26 5 -26 -14 0 -8 -6 -12 -14 -9 -20 8 -27 -23 -8 -38 10 -8 13 -8 9
-1 -4 6 -3 14 2 17 5 4 8 -2 6 -11 -2 -10 -4 -24 -4 -32 -1 -11 -4 -11 -18 0
-11 10 -14 10 -9 2 9 -16 1 -16 -24 -3 -13 7 -21 7 -25 0 -4 -6 -11 -8 -16 -5
-13 9 -11 -9 4 -24 10 -10 8 -11 -8 -5 -17 7 -18 5 -8 -7 11 -13 7 -15 -27
-13 -22 1 -37 -2 -34 -7 3 -5 1 -9 -5 -9 -7 0 -7 -8 -1 -25 6 -16 6 -25 0 -25
-6 0 -10 7 -10 16 0 8 -5 12 -11 9 -6 -4 -8 -13 -5 -20 2 -7 -3 -16 -12 -20
-9 -3 -14 -3 -10 0 3 4 -2 15 -13 26 -22 22 -25 78 -7 130 44 131 226 300 384
356 79 28 89 30 160 32 47 1 61 -2 61 -14z m-416 -422 c13 -16 12 -17 -3 -4
-10 7 -18 15 -18 17 0 8 8 3 21 -13z m-96 -53 c3 -5 1 -10 -4 -10 -6 0 -11 5
-11 10 0 6 2 10 4 10 3 0 8 -4 11 -10z m1193 -180 c67 -41 90 -126 54 -199
-23 -47 -35 -48 -51 -5 -13 36 -61 90 -135 153 l-40 34 23 18 c32 26 106 25
149 -1z"/>
</g>
</svg>
